<?xml version="1.0" standalone="no"?>
<!DOCTYPE svg PUBLIC "-//W3C//DTD SVG 20010904//EN"
 "http://www.w3.org/TR/2001/REC-SVG-20010904/DTD/svg10.dtd">
<svg version="1.0" xmlns="http://www.w3.org/2000/svg"
 width="1024.000000pt" height="1024.000000pt" viewBox="0 0 1024.000000 1024.000000"
 preserveAspectRatio="xMidYMid meet">
<metadata>
Created by potrace 1.14, written by Peter Selinger 2001-2017
</metadata>
<g transform="translate(0.000000,1024.000000) scale(0.100000,-0.100000)"
fill="#000000" stroke="none">
<path d="M5098 9215 c-2 -1 -25 -5 -53 -8 -121 -13 -285 -66 -414 -134 -341
-182 -664 -540 -918 -1020 -30 -57 -58 -103 -61 -103 -4 0 -72 23 -152 51
-135 47 -335 111 -405 129 -16 4 -84 22 -150 40 -172 46 -301 73 -537 114
l-78 13 -1 -61 c-2 -70 -3 -88 -13 -138 l-7 -36 63 -11 c110 -19 119 -21 277
-62 174 -44 323 -89 515 -156 128 -44 350 -128 366 -138 5 -3 -5 -38 -22 -78
-121 -291 -257 -766 -322 -1132 -3 -16 -8 -41 -11 -54 -2 -12 -7 -42 -9 -65
-3 -22 -7 -50 -10 -61 -2 -11 -7 -40 -10 -65 -3 -25 -8 -55 -10 -67 -3 -12 -8
-53 -11 -90 -4 -37 -9 -76 -11 -87 -2 -10 -6 -48 -9 -85 -4 -36 -8 -82 -10
-101 -2 -19 -4 -53 -4 -76 -1 -48 -9 -58 -111 -138 -72 -58 -283 -230 -306
-251 -6 -5 -37 -32 -69 -60 -32 -27 -67 -58 -78 -67 -11 -10 -23 -18 -27 -18
-7 0 -301 298 -395 401 -33 36 -78 85 -101 110 -49 54 -227 266 -312 372 -297
373 -550 821 -629 1117 -75 282 -44 524 88 674 l29 34 -24 48 c-13 27 -29 66
-36 87 -13 40 -18 40 -60 -3 -93 -94 -166 -234 -188 -363 -13 -77 -7 -298 11
-373 46 -198 159 -464 273 -641 19 -30 34 -56 34 -58 0 -15 296 -432 330 -465
3 -3 39 -45 80 -95 189 -228 453 -505 743 -782 102 -97 118 -117 98 -125 -34
-12 -587 -555 -753 -738 -397 -440 -685 -878 -801 -1220 -177 -522 -26 -919
417 -1098 43 -18 81 -32 85 -32 4 0 5 46 4 103 l-3 102 -66 27 c-220 91 -343
273 -348 518 -3 138 31 298 104 483 137 349 417 765 825 1227 134 151 578 600
594 600 5 0 38 -26 73 -57 139 -126 228 -202 408 -353 114 -95 108 -86 115
-180 7 -105 16 -210 20 -231 2 -9 6 -40 10 -70 3 -30 13 -101 22 -159 8 -58
17 -116 18 -130 2 -14 7 -41 10 -60 4 -19 9 -46 11 -60 3 -14 13 -65 24 -115
11 -49 22 -101 24 -115 13 -69 73 -301 107 -415 47 -158 135 -405 196 -551 9
-23 -450 -184 -773 -272 l-139 -38 0 -125 0 -126 60 13 c255 54 496 120 763
210 108 36 200 66 205 67 4 1 27 -34 51 -78 102 -189 241 -406 327 -510 231
-278 398 -420 636 -539 89 -44 216 -91 277 -102 17 -2 38 -7 46 -9 42 -11 105
-16 193 -16 500 1 958 349 1297 986 29 55 56 105 60 110 3 6 17 35 30 65 62
149 63 151 84 144 12 -4 39 -15 61 -25 93 -42 382 -151 535 -202 145 -49 436
-131 509 -144 14 -2 58 -10 96 -18 216 -42 311 -52 500 -54 365 -4 625 88 790
281 171 199 216 482 134 827 -58 242 -181 523 -349 796 -51 83 -161 256 -173
270 -4 6 -44 62 -89 125 -45 63 -85 117 -90 118 -4 2 -8 10 -8 17 0 7 -4 15
-8 17 -5 2 -56 62 -113 133 -57 72 -114 141 -126 155 -12 14 -31 36 -43 50
-21 24 -124 138 -190 210 -17 19 -63 68 -102 108 -79 81 -78 69 -8 143 49 51
198 215 231 254 19 22 37 42 40 45 4 3 35 39 69 80 34 41 70 85 81 98 45 53
232 307 311 422 85 124 181 282 253 414 38 71 37 85 -8 86 -10 0 -52 11 -93
25 -42 14 -80 23 -85 20 -5 -4 -16 -21 -25 -38 -46 -90 -363 -544 -403 -577
-5 -4 -60 -71 -111 -134 -113 -140 -514 -560 -529 -554 -5 2 -54 46 -108 98
-86 83 -215 201 -279 257 -67 57 -136 116 -183 157 -44 37 -55 53 -57 79 -3
56 -19 211 -29 287 -3 19 -7 53 -9 75 -3 22 -7 54 -10 70 -3 17 -7 50 -11 75
-3 25 -8 56 -10 70 -3 14 -7 41 -10 60 -61 368 -145 707 -254 1026 l-48 142
106 36 c93 31 278 90 321 102 61 16 287 75 304 79 94 19 279 55 316 60 81 12
94 14 175 22 99 10 401 10 475 1 93 -13 185 -35 256 -64 78 -30 187 -98 223
-138 20 -21 31 -25 55 -21 17 4 40 8 51 10 11 2 44 4 73 4 l54 1 -31 39 c-47
59 -101 109 -165 153 -55 38 -171 96 -205 103 -9 2 -41 10 -71 19 -120 34
-230 45 -420 41 -102 -2 -194 -5 -205 -8 -11 -2 -47 -8 -80 -12 -32 -4 -68 -9
-79 -11 -11 -2 -38 -6 -61 -10 -59 -8 -218 -42 -288 -60 -34 -9 -70 -18 -80
-20 -98 -19 -605 -190 -743 -250 -6 -3 -27 35 -49 88 -189 462 -470 859 -758
1072 -218 160 -422 234 -664 241 -61 1 -113 2 -115 0z m239 -180 c139 -14 324
-87 467 -186 229 -158 449 -419 630 -746 58 -105 156 -307 156 -320 0 -5 -33
-21 -73 -37 -74 -30 -289 -125 -432 -191 -103 -47 -428 -210 -525 -262 -41
-22 -100 -53 -130 -69 -30 -15 -67 -36 -82 -46 -37 -25 -51 -23 -121 18 -333
197 -927 491 -1305 645 -13 5 -21 12 -19 17 2 4 29 59 60 122 32 63 61 122 66
130 5 8 32 53 60 100 55 95 171 258 241 340 180 213 357 343 595 441 19 8 83
25 130 35 11 3 52 8 90 11 39 3 71 7 73 8 2 2 15 2 30 0 15 -2 55 -6 89 -10z
m1355 -1500 c31 -82 69 -197 108 -320 35 -111 106 -398 139 -561 31 -157 36
-181 55 -314 4 -25 9 -56 11 -70 9 -48 14 -86 20 -145 5 -60 15 -134 21 -167
1 -10 1 -18 -2 -18 -5 0 -135 102 -169 133 -38 35 -381 295 -545 412 -267 192
-660 450 -922 605 -32 19 -54 38 -50 41 10 11 359 187 487 246 258 121 321
148 520 227 94 38 190 76 215 86 l45 19 19 -47 c10 -26 32 -83 48 -127z
m-2690 -45 c196 -92 561 -277 698 -354 41 -24 95 -54 120 -68 106 -59 160 -90
160 -93 0 -2 -80 -51 -177 -110 -427 -258 -876 -556 -1228 -814 -49 -37 -105
-77 -123 -90 l-33 -23 6 49 c3 26 8 66 11 88 10 72 12 89 19 150 4 32 8 66 10
75 1 8 6 37 9 64 6 41 15 94 41 246 4 22 14 70 55 255 7 31 58 224 74 280 1 6
8 30 15 55 34 126 125 380 136 380 7 0 100 -41 207 -90z m1105 -586 c43 -26
103 -63 133 -82 30 -19 71 -45 90 -57 343 -217 516 -331 760 -503 138 -98 466
-338 486 -357 6 -5 46 -37 89 -70 43 -33 110 -86 149 -118 39 -32 78 -64 86
-70 8 -7 52 -43 98 -81 l82 -68 1 -51 c5 -256 0 -659 -9 -684 -2 -7 -36 -38
-75 -70 -40 -32 -74 -60 -77 -63 -11 -12 -251 -200 -325 -255 -44 -33 -82 -62
-85 -65 -26 -29 -461 -335 -727 -511 -261 -173 -284 -187 -557 -351 l-229
-138 -46 27 c-172 100 -577 361 -801 516 -220 153 -633 460 -727 541 -3 2 -7
44 -18 156 -30 320 -22 1129 14 1332 1 7 313 242 381 288 12 8 32 22 44 31 25
19 107 75 261 180 87 60 387 253 491 316 146 89 237 143 241 143 4 0 14 6 22
14 9 7 43 28 76 45 33 18 64 37 70 42 14 14 19 12 102 -37z m-2031 -1391 c-9
-147 -9 -571 0 -717 5 -98 4 -117 -7 -110 -19 11 -100 82 -258 224 -46 41 -93
83 -105 93 -66 58 -163 156 -156 159 4 2 37 30 72 63 56 52 96 88 208 185 14
12 47 40 74 63 28 23 77 65 110 94 34 29 62 52 64 52 2 1 1 -47 -2 -106z
m4214 -198 c69 -60 143 -126 165 -147 l40 -39 -65 -61 c-36 -33 -112 -102
-170 -151 -58 -50 -114 -99 -125 -108 l-20 -18 0 339 0 339 25 -23 c14 -12 81
-71 150 -131z m576 -546 c82 -84 156 -159 164 -168 34 -37 205 -228 229 -256
15 -16 65 -77 111 -135 47 -58 87 -107 90 -110 3 -3 49 -63 101 -135 324 -440
516 -835 555 -1140 43 -340 -95 -570 -404 -674 -34 -12 -78 -24 -99 -27 -21
-3 -40 -7 -43 -9 -40 -25 -485 -24 -612 0 -11 2 -54 9 -96 15 -170 23 -486
102 -747 186 -159 51 -428 148 -444 160 -2 2 1 16 7 31 97 263 145 415 202
639 22 83 41 161 44 175 3 13 7 33 10 44 15 63 65 328 72 380 2 17 6 41 9 55
6 34 12 74 20 139 4 30 8 63 11 74 2 10 6 45 9 76 3 31 8 72 10 91 9 64 18
155 18 170 -1 8 31 41 71 74 113 93 329 285 486 434 36 34 68 62 71 62 4 0 74
-68 155 -151z m-4288 -541 c81 -62 157 -120 169 -128 12 -8 81 -58 155 -111
247 -178 724 -499 928 -624 140 -85 146 -66 -52 -175 -173 -95 -601 -312 -713
-362 -33 -14 -106 -47 -163 -73 -57 -26 -105 -45 -107 -43 -8 8 -67 173 -100
278 -44 138 -64 209 -111 400 -39 158 -41 165 -50 224 -3 22 -7 43 -9 46 -3 5
-41 211 -50 271 -26 181 -35 255 -41 319 -3 41 -8 78 -11 83 -11 19 18 -1 155
-105z m3443 -80 c-20 -148 -24 -173 -37 -248 -3 -19 -8 -48 -11 -65 -2 -16
-13 -73 -23 -125 -11 -52 -21 -106 -24 -120 -32 -173 -129 -521 -199 -720 -46
-132 -122 -326 -136 -348 -7 -12 -53 3 -176 58 -22 10 -76 33 -120 53 -257
112 -660 313 -923 459 l-63 35 203 123 c510 309 968 628 1433 999 49 40 91 68
93 62 2 -5 -6 -78 -17 -163z m-1706 -1076 c28 -16 70 -39 95 -53 183 -104 238
-135 340 -189 153 -81 615 -309 710 -350 41 -18 79 -36 84 -40 4 -4 -13 -50
-39 -102 -233 -462 -519 -793 -825 -956 -152 -82 -292 -116 -465 -116 -410 2
-815 305 -1142 854 -52 87 -163 305 -163 319 0 4 33 21 73 36 208 81 716 320
952 448 172 94 230 125 275 151 25 14 47 26 50 26 3 0 28 -13 55 -28z"/>
<path d="M4923 5694 c-172 -35 -329 -161 -405 -324 -36 -76 -49 -130 -53 -219
-18 -348 276 -633 625 -608 193 14 358 116 459 283 55 90 76 176 76 304 0 169
-49 286 -170 406 -144 143 -332 199 -532 158z"/>
<path d="M1600 8635 c-75 -21 -136 -59 -193 -118 -147 -153 -155 -385 -20
-551 105 -128 269 -182 426 -141 80 21 126 46 184 102 118 113 160 273 113
424 -38 124 -131 225 -247 270 -75 28 -189 34 -263 14z"/>
<path d="M8924 7606 c-117 -42 -191 -110 -246 -226 -53 -110 -47 -259 15 -375
48 -88 150 -168 254 -199 71 -20 192 -15 260 11 261 103 354 426 185 648 -107
141 -304 200 -468 141z"/>
<path d="M1872 2565 c-212 -77 -327 -302 -263 -513 56 -186 222 -305 416 -298
365 14 537 448 282 710 -114 116 -283 156 -435 101z"/>
</g>
</svg>
