<?xml version="1.0" encoding="utf-8"?>
<!-- Generator: Moho 12.0 build 20763 -->
<!DOCTYPE svg PUBLIC "-//W3C//DTD SVG 1.1//EN" "http://www.w3.org/Graphics/SVG/1.1/DTD/svg11.dtd">
<svg version="1.1" id="Frame_1" xmlns="http://www.w3.org/2000/svg" xmlns:xlink="http://www.w3.org/1999/xlink" width="1080px" height="1080px">
<g id="telegram-black.svg">
<path fill="#666666" fill-rule="evenodd" stroke="none" d="M 1568.252 664.014 C 1595.740 685.490 1623.231 706.972 1650.728 728.461 C 1622.446 754.235 1594.169 780.016 1565.896 805.804 C 1564.452 802.567 1559.263 810.833 1552.009 807.682 C 1557.419 759.786 1562.834 711.897 1568.252 664.014 M 1881.756 330.479 C 1914.285 319.256 1924.646 311.632 1924.646 342.828 C 1893.658 499.019 1870.602 656.995 1831.706 811.414 C 1822.391 848.395 1821.787 856.216 1782.966 828.305 C 1711.686 772.189 1569.165 659.996 1569.143 659.979 C 1569.168 659.957 1807.014 446.161 1816.759 437.062 C 1826.508 427.963 1823.257 426.016 1823.257 426.016 C 1823.904 414.967 1805.710 426.016 1805.710 426.016 C 1700.637 492.736 1595.570 559.459 1490.507 626.188 C 1446.743 611.451 1403.608 594.713 1359.225 581.992 C 1348.841 579.016 1339.078 574.841 1337.130 559.247 C 1335.180 543.644 1359.875 535.199 1359.875 535.199 C 1533.832 466.955 1695.890 394.605 1881.756 330.479 M 1152.980 580.223 C 1152.980 292.519 1386.209 59.290 1673.913 59.290 C 1961.618 59.290 2194.847 292.519 2194.847 580.223 C 2194.847 867.928 1961.618 1101.157 1673.913 1101.157 C 1386.209 1101.157 1152.980 867.928 1152.980 580.223 Z"/>
<path fill="#000000" fill-rule="evenodd" stroke="#000000" stroke-width="1" stroke-linecap="round" stroke-linejoin="round" d="M 425.440 703.128 C 470.715 738.501 515.996 773.884 561.286 809.278 C 514.702 851.731 468.127 894.194 421.559 936.670 C 419.180 931.339 410.634 944.954 398.685 939.764 C 407.596 860.874 416.515 781.996 425.440 703.128 M 941.815 153.758 C 995.394 135.273 1012.459 122.715 1012.459 174.099 C 961.418 431.362 923.445 691.567 859.377 945.911 C 844.034 1006.823 843.039 1019.705 779.097 973.732 C 661.691 881.303 426.943 696.509 426.907 696.481 C 426.948 696.444 818.706 344.298 834.758 329.312 C 850.815 314.326 845.461 311.119 845.461 311.119 C 846.527 292.920 816.559 311.119 816.559 311.119 C 643.492 421.013 470.436 530.914 297.385 640.824 C 225.302 616.550 154.253 588.981 81.150 568.028 C 64.046 563.126 47.964 556.249 44.757 530.565 C 41.544 504.865 82.220 490.955 82.220 490.955 C 368.746 378.549 635.672 259.380 941.815 153.758 Z"/>
</g>
</svg>
